# xmcd
#
# Track frame offsets:
#	150
#	13870
#	33248
#	53290
#	70272
#	87685
#	107467
#	123298
#	141260
#	158553
#	174023
#	192796
#	209027
#	224057
#	237292
#
# Disc length: 3489
#
# Revision: 1
# Processed by: cddbd v1.5.1PL0 Copyright (c) Steve Scherf et al.
# Submitted via: CDex 1.51
# Normalized: r0:TDELIM( - )
#
DISCID=cd0d9f0f
DTITLE=Various Artist - Red, White and Blues
DYEAR=2004
DGENRE=Blues
TTITLE0=Jimmy Bowskill - Be Mine
TTITLE1=Sue Foley - Bad Luck Woman
TTITLE2=Jack de Keyzer - Soul Lover
TTITLE3=Powder Blues Band - Hear That Guitar Ring
TTITLE4=David Gogo - (Just Ask) Jesse James
TTITLE5=Dawn Tyler Blues Project - Shoot The Devil
TTITLE6=Long John Baldry - Midnight Special
TTITLE7=Morgan Davis - Gettin' Old
TTITLE8=The Downchild Blues Band - It's A Matter Of Time
TTITLE9=Ellen Mcllwaine - Born Under A Bad Sign
TTITLE10=Fathead - Hard Times
TTITLE11=Kenny "Blues Boss" Wayne - My Nadine
TTITLE12=Dutch Mason - I Must Be Crazy
TTITLE13=King Biscuit Boy - Going To The River
TTITLE14=Rita Chiarelli (with Colin Linden) - Tupelo
EXTD=YEAR: 2004
EXTT0=
EXTT1=
EXTT2=
EXTT3=
EXTT4=
EXTT5=
EXTT6=
EXTT7=
EXTT8=
EXTT9=
EXTT10=
EXTT11=
EXTT12=
EXTT13=
EXTT14=
PLAYORDER=
